<?xml version="1.0" encoding="utf-8"?>
<!-- Generator: Adobe Illustrator 16.0.0, SVG Export Plug-In . SVG Version: 6.00 Build 0)  -->
<!DOCTYPE svg PUBLIC "-//W3C//DTD SVG 1.1//EN" "http://www.w3.org/Graphics/SVG/1.1/DTD/svg11.dtd">
<svg version="1.1" id="Layer_1" xmlns="http://www.w3.org/2000/svg" xmlns:xlink="http://www.w3.org/1999/xlink" x="0px" y="0px"
	 width="40px" height="40px" viewBox="0 0 40 40" enable-background="new 0 0 40 40" xml:space="preserve">
<g>
	<g>
		<path fill-rule="evenodd" clip-rule="evenodd" fill="#FFFFFF" d="M20.5,35h-1c-0.553,0-1,0.447-1,1v3c0,0.553,0.447,1,1,1h1
			c0.553,0,1-0.447,1-1v-3C21.5,35.447,21.053,35,20.5,35z M9.04,30.253c-0.391-0.391-1.024-0.391-1.415,0l-2.121,2.121
			c-0.391,0.391-0.391,1.024,0,1.414l0.707,0.708c0.391,0.39,1.023,0.39,1.414,0l2.122-2.122c0.391-0.391,0.391-1.023,0-1.414
			L9.04,30.253z M19.5,5h1c0.553,0,1-0.448,1-1V1c0-0.552-0.447-1-1-1h-1c-0.553,0-1,0.448-1,1v3C18.5,4.552,18.947,5,19.5,5z
			 M7.625,9.747c0.391,0.391,1.024,0.391,1.415,0L9.747,9.04c0.391-0.391,0.391-1.024,0-1.415L7.625,5.504
			c-0.391-0.391-1.023-0.391-1.414,0L5.504,6.211c-0.391,0.391-0.391,1.023,0,1.414L7.625,9.747z M4,18.5H1c-0.553,0-1,0.448-1,1v1
			c0,0.552,0.447,1,1,1h3c0.553,0,1-0.448,1-1v-1C5,18.948,4.553,18.5,4,18.5z M39,18.5h-3c-0.553,0-1,0.448-1,1v1
			c0,0.552,0.447,1,1,1h3c0.553,0,1-0.448,1-1v-1C40,18.948,39.553,18.5,39,18.5z M20,8.001C13.373,8.001,8.002,13.374,8.002,20
			c0,6.627,5.371,11.998,11.998,11.998S31.998,26.627,31.998,20C31.998,13.374,26.627,8.001,20,8.001z M20,28.999
			c-4.971,0-9-4.029-9-8.999c0-4.97,4.029-9,9-9c4.97,0,8.999,4.029,8.999,9C28.999,24.97,24.97,28.999,20,28.999z M33.788,5.504
			c-0.39-0.391-1.023-0.391-1.414,0l-2.121,2.121c-0.391,0.391-0.391,1.024,0,1.415l0.707,0.707c0.391,0.391,1.023,0.391,1.414,0
			l2.122-2.122c0.39-0.391,0.39-1.023,0-1.414L33.788,5.504z M32.374,30.253c-0.39-0.391-1.023-0.391-1.414,0l-0.707,0.707
			c-0.391,0.391-0.391,1.023,0,1.414l2.121,2.122c0.391,0.39,1.024,0.39,1.415,0l0.707-0.708c0.39-0.39,0.39-1.023,0-1.414
			L32.374,30.253z"/>
	</g>
</g>
</svg>
