<?xml version="1.0" encoding="utf-8"?>
<!-- Generator: Adobe Illustrator 16.0.0, SVG Export Plug-In . SVG Version: 6.00 Build 0)  -->
<!DOCTYPE svg PUBLIC "-//W3C//DTD SVG 1.1//EN" "http://www.w3.org/Graphics/SVG/1.1/DTD/svg11.dtd">
<svg version="1.1" id="Layer_1" xmlns="http://www.w3.org/2000/svg" xmlns:xlink="http://www.w3.org/1999/xlink" x="0px" y="0px"
	 width="40px" height="40px" viewBox="0 0 40 40" enable-background="new 0 0 40 40" xml:space="preserve">
<path fill-rule="evenodd" clip-rule="evenodd" fill="#FFFFFF" d="M14.256,5.071c0.14-0.054,0.278-0.114,0.42-0.164
	c0.403-0.14,0.809-0.263,1.217-0.37c0.032-0.009,0.065-0.019,0.098-0.027c0.444-0.113,0.89-0.208,1.337-0.284
	c1.423-0.241,2.855-0.288,4.268-0.144c-4.703,3.985-6.041,10.875-2.85,16.402c3.265,5.654,10.132,7.912,16.026,5.579
	c-0.536,1.306-1.234,2.547-2.106,3.682c-0.619,0.805-1.319,1.557-2.098,2.244c-0.053,0.047-0.113,0.087-0.167,0.134
	c-0.34,0.292-0.688,0.577-1.058,0.843c-0.432,0.311-0.882,0.604-1.352,0.875c-7.648,4.417-17.43,1.796-21.846-5.856
	S4.351,10.547,11.999,6.129c0.443-0.256,0.894-0.482,1.35-0.691C13.647,5.302,13.952,5.187,14.256,5.071z M8.744,26.483
	c3.59,6.219,11.54,8.349,17.759,4.759c0.688-0.397,1.319-0.856,1.905-1.354c-4.943-0.498-9.587-3.271-12.261-7.905
	c-2.576-4.463-2.742-9.646-0.929-14.073c-0.582,0.231-1.157,0.492-1.716,0.814C7.284,12.314,5.153,20.266,8.744,26.483z"/>
</svg>
