<?xml version="1.0" encoding="utf-8"?>
<!-- Generator: Adobe Illustrator 16.0.0, SVG Export Plug-In . SVG Version: 6.00 Build 0)  -->
<!DOCTYPE svg PUBLIC "-//W3C//DTD SVG 1.1//EN" "http://www.w3.org/Graphics/SVG/1.1/DTD/svg11.dtd">
<svg version="1.1" id="Layer_1" xmlns="http://www.w3.org/2000/svg" xmlns:xlink="http://www.w3.org/1999/xlink" x="0px" y="0px"
	 width="40px" height="40px" viewBox="0 0 40 40" enable-background="new 0 0 40 40" xml:space="preserve">
<g>
	<g>
		<path fill-rule="evenodd" clip-rule="evenodd" fill="#FFFFFF" d="M35.986,19.07c0-0.026,0.004-0.05,0.004-0.076
			c0-5.52-4.475-9.995-9.995-9.995c-1.049,0-2.059,0.163-3.009,0.463C20.983,7.335,18.149,6,14.997,6
			C8.929,6,4.01,10.919,4.01,16.987c0,0.674,0.07,1.331,0.186,1.972c-2.491,1.354-4.182,3.994-4.182,7.029
			c0,4.418,3.58,7.998,7.996,7.998h23.98c4.416,0,7.996-3.58,7.996-7.998C39.986,23.029,38.375,20.453,35.986,19.07z M31.982,30.986
			H8.002c-2.757,0-4.991-2.234-4.991-4.99c0-2.758,2.234-4.992,4.991-4.992h0.095c-0.683-1.178-1.081-2.542-1.081-4
			c0-4.416,3.579-7.995,7.995-7.995c3.047,0,5.694,1.705,7.043,4.212c1.124-0.771,2.482-1.224,3.948-1.224
			c3.859,0,6.988,3.129,6.988,6.988c0,0.728-0.111,1.429-0.317,2.088c2.426,0.34,4.3,2.401,4.3,4.923
			C36.974,28.752,34.739,30.986,31.982,30.986z"/>
	</g>
</g>
</svg>
