<?xml version="1.0" encoding="utf-8"?>
<!-- Generator: Adobe Illustrator 16.0.0, SVG Export Plug-In . SVG Version: 6.00 Build 0)  -->
<!DOCTYPE svg PUBLIC "-//W3C//DTD SVG 1.1//EN" "http://www.w3.org/Graphics/SVG/1.1/DTD/svg11.dtd">
<svg version="1.1" id="Layer_1" xmlns="http://www.w3.org/2000/svg" xmlns:xlink="http://www.w3.org/1999/xlink" x="0px" y="0px"
	 width="40px" height="40px" viewBox="0 0 40 40" enable-background="new 0 0 40 40" xml:space="preserve">
<path fill-rule="evenodd" clip-rule="evenodd" fill="#FFFFFF" d="M39,21.5h-3c-0.553,0-1-0.448-1-1v-1c0-0.552,0.447-1,1-1h3
	c0.552,0,1,0.448,1,1v1C40,21.052,39.552,21.5,39,21.5z M32.374,9.747c-0.391,0.391-1.023,0.391-1.414,0L30.253,9.04
	c-0.391-0.391-0.391-1.024,0-1.415l2.121-2.121c0.391-0.391,1.024-0.391,1.414,0l0.708,0.707c0.39,0.391,0.39,1.023,0,1.414
	L32.374,9.747z M30.714,25.322C30.428,25.697,30.001,26,29.578,26h-1.531c-0.656,0-0.828-0.438-0.375-1.281
	c0.013-0.023,0.003-0.03,0.011-0.051c0.833-1.36,1.316-2.956,1.316-4.668c0-4.97-4.029-9-8.999-9c-4.577,0-8.347,3.419-8.917,7.84
	c-0.013,0.056-0.032,0.096-0.034,0.176c-0.01,0.552-0.466,0.991-1.019,0.981l-1-0.019c-0.547-0.011-0.979-0.458-0.979-1.002
	C8.574,12.831,13.719,8.001,20,8.001c6.627,0,11.998,5.372,11.998,11.999C31.998,21.92,31.52,23.717,30.714,25.322z M20.5,5h-1
	c-0.552,0-1-0.448-1-1V1c0-0.552,0.448-1,1-1h1c0.552,0,1,0.448,1,1v3C21.5,4.552,21.052,5,20.5,5z M9.04,9.747
	c-0.391,0.391-1.024,0.391-1.415,0L5.504,7.625c-0.391-0.391-0.391-1.023,0-1.414l0.707-0.707c0.391-0.391,1.023-0.391,1.414,0
	l2.122,2.121c0.391,0.391,0.391,1.024,0,1.415L9.04,9.747z M23,23c0.553,0,1,0.448,1,1v1c0,0.552-0.447,1-1,1H4
	c-0.552,0-1-0.448-1-1v-1c0-0.552,0.448-1,1-1l0,0H23L23,23z M36,29c0.553,0,1,0.447,1,1v1c0,0.552-0.447,1-1,1H1
	c-0.552,0-1-0.448-1-1v-1c0-0.553,0.448-1,1-1l0,0H36L36,29z M14,35h17c0.553,0,1,0.447,1,1v1c0,0.553-0.447,1-1,1H14
	c-0.552,0-1-0.447-1-1v-1C13,35.447,13.448,35,14,35z"/>
</svg>
