<?xml version="1.0" encoding="utf-8"?>
<!-- Generator: Adobe Illustrator 16.0.0, SVG Export Plug-In . SVG Version: 6.00 Build 0)  -->
<!DOCTYPE svg PUBLIC "-//W3C//DTD SVG 1.1//EN" "http://www.w3.org/Graphics/SVG/1.1/DTD/svg11.dtd">
<svg version="1.1" id="Layer_1" xmlns="http://www.w3.org/2000/svg" xmlns:xlink="http://www.w3.org/1999/xlink" x="0px" y="0px"
	 width="40px" height="40px" viewBox="0 0 40 40" enable-background="new 0 0 40 40" xml:space="preserve">
<path fill-rule="evenodd" clip-rule="evenodd" fill="#FFFFFF" d="M39.987,25.988c0,4.418-3.58,7.998-7.996,7.998h-4.776
	c-0.614-0.051-0.689-0.508-0.438-0.967c0.003-0.006-0.001-0.006,0.001-0.012c0.18-0.328,0.371-0.678,0.565-1.033
	c0.009-0.014,0.019-0.018,0.027-0.033c0.346-0.623,0.719-0.953,1.609-0.953c0.005,0,0.006-0.002,0.011-0.002h2.993
	c2.757,0,4.991-2.234,4.991-4.99c0-2.521-1.874-4.584-4.301-4.922c0.206-0.66,0.318-1.361,0.318-2.089
	c0-3.859-3.129-6.988-6.988-6.988c-1.466,0-2.824,0.453-3.948,1.224c-1.35-2.507-3.997-4.212-7.043-4.212
	c-4.416,0-7.995,3.579-7.995,7.995c0,1.459,0.397,2.823,1.08,4H8.002c-2.757,0-4.992,2.234-4.992,4.992
	c0,2.756,2.235,4.99,4.992,4.99h2.016c0.004,0,0.003,0.002,0.007,0.002c0.609,0,0.922,0.406,0.656,0.906
	c-0.003,0.006,0.002,0.008,0,0.012c-0.233,0.432-0.458,0.846-0.661,1.219c-0.255,0.443-0.564,0.852-1.379,0.861H8.01
	c-4.417,0-7.997-3.58-7.997-7.998c0-3.035,1.691-5.674,4.183-7.029C4.08,18.318,4.01,17.662,4.01,16.987
	C4.01,10.919,8.929,6,14.997,6c3.152,0,5.986,1.335,7.99,3.461c0.949-0.299,1.96-0.462,3.009-0.462c5.521,0,9.995,4.475,9.995,9.995
	c0,0.026-0.004,0.05-0.004,0.076C38.375,20.453,39.987,23.029,39.987,25.988z M15.653,32.852c1.32,0.762,1.772,2.451,1.01,3.77
	c-0.762,1.32-2.45,1.773-3.77,1.01c-1.32-0.762-1.772-2.449-1.01-3.77C12.646,32.543,14.333,32.09,15.653,32.852z M15.87,31.391
	c-0.359-0.207-0.481-0.666-0.274-1.025c0.207-0.357,2.809-5.145,3.016-5.504c0.207-0.357,0.666-0.48,1.024-0.273
	s0.481,0.666,0.274,1.023c-0.207,0.359-2.809,5.146-3.016,5.504C16.687,31.475,16.229,31.598,15.87,31.391z M22.87,31.391
	c-0.358-0.207-0.481-0.666-0.274-1.025c0.207-0.357,2.809-5.145,3.016-5.504c0.207-0.357,0.666-0.48,1.024-0.273
	s0.481,0.666,0.274,1.023c-0.207,0.359-2.809,5.146-3.016,5.504C23.687,31.475,23.228,31.598,22.87,31.391z M22.653,32.852
	c1.32,0.762,1.772,2.451,1.011,3.77c-0.763,1.32-2.45,1.773-3.77,1.01c-1.32-0.762-1.772-2.449-1.01-3.77
	C19.646,32.543,21.333,32.09,22.653,32.852z"/>
</svg>
