<?xml version="1.0" encoding="utf-8"?>
<!-- Generator: Adobe Illustrator 16.0.0, SVG Export Plug-In . SVG Version: 6.00 Build 0)  -->
<!DOCTYPE svg PUBLIC "-//W3C//DTD SVG 1.1//EN" "http://www.w3.org/Graphics/SVG/1.1/DTD/svg11.dtd">
<svg version="1.1" id="Layer_1" xmlns="http://www.w3.org/2000/svg" xmlns:xlink="http://www.w3.org/1999/xlink" x="0px" y="0px"
	 width="40px" height="40px" viewBox="0 0 40 40" enable-background="new 0 0 40 40" xml:space="preserve">
<path fill-rule="evenodd" clip-rule="evenodd" fill="#FFFFFF" d="M39.791,20.217c-0.445,1.3-1.085,2.535-1.927,3.646
	c-0.508,0.671-1.086,1.297-1.729,1.867c-0.033,0.03-0.071,0.056-0.104,0.084c-0.292,0.254-0.592,0.499-0.91,0.729
	c-0.355,0.256-0.727,0.497-1.114,0.721c-1.119,0.646-2.296,1.101-3.492,1.386c0.309,0.724,0.481,1.519,0.481,2.354
	c0,3.312-2.685,5.997-5.997,5.997H5.997C2.685,37,0,34.315,0,31.003c0-1.793,0.803-3.384,2.051-4.483
	c-0.035-0.334-0.057-0.673-0.057-1.016c0-5.247,4.254-9.5,9.5-9.5c1.063,0,2.083,0.182,3.038,0.505
	c-0.184-4.667,2.149-9.274,6.474-11.772c0.374-0.216,0.755-0.409,1.14-0.583c0.305-0.137,0.613-0.254,0.923-0.366
	c0.075-0.027,0.148-0.061,0.223-0.087c0.771-0.263,1.557-0.449,2.346-0.564c1.376-0.2,2.762-0.18,4.109,0.057
	c-3.793,3.033-4.915,8.454-2.413,12.788C29.868,20.372,35.229,22.102,39.791,20.217z M11.494,19.003c-3.59,0-6.499,2.91-6.499,6.499
	c0,0.907,0.188,1.771,0.524,2.555c-1.429,0.229-2.522,1.458-2.522,2.951c0,1.657,1.343,3,2.999,3h19.006c1.657,0,3-1.343,3-3
	c0-1.656-1.343-2.999-3-2.999h-1.236c0.149-0.475,0.252-0.97,0.252-1.492c0-2.764-2.239-5.003-5.003-5.003
	c-0.742,0-1.44,0.172-2.073,0.462C15.782,20.19,13.781,19.003,11.494,19.003z M24.736,17.502c-1.964-3.402-2.205-7.319-1.014-10.761
	c-0.413,0.169-0.822,0.357-1.22,0.587c-3.967,2.291-5.745,6.887-4.667,11.118c0.055,0.049,0.11,0.098,0.164,0.149
	c0.334-0.044,0.67-0.081,1.016-0.081c4.02,0,7.338,2.968,7.906,6.829c0.448,0.156,0.878,0.353,1.272,0.603
	c1.471-0.102,2.941-0.519,4.304-1.306c0.435-0.251,0.835-0.539,1.217-0.842C30.073,23.146,26.73,20.958,24.736,17.502z"/>
</svg>
