<?xml version="1.0" encoding="utf-8"?>
<!-- Generator: Adobe Illustrator 16.0.0, SVG Export Plug-In . SVG Version: 6.00 Build 0)  -->
<!DOCTYPE svg PUBLIC "-//W3C//DTD SVG 1.1//EN" "http://www.w3.org/Graphics/SVG/1.1/DTD/svg11.dtd">
<svg version="1.1" id="Layer_1" xmlns="http://www.w3.org/2000/svg" xmlns:xlink="http://www.w3.org/1999/xlink" x="0px" y="0px"
	 width="40px" height="40px" viewBox="0 0 40 40" enable-background="new 0 0 40 40" xml:space="preserve">
<path fill-rule="evenodd" clip-rule="evenodd" fill="#FFFFFF" d="M38.997,22h-3c-0.553,0-1-0.448-1-1v-1c0-0.553,0.447-1,1-1h3
	c0.553,0,1,0.447,1,1v1C39.997,21.552,39.55,22,38.997,22z M33.104,12.015c-0.391,0.391-1.023,0.391-1.414,0l-0.707-0.707
	c-0.391-0.391-0.391-1.024,0-1.414l2.121-2.122c0.391-0.391,1.023-0.39,1.414,0l0.707,0.707c0.391,0.391,0.391,1.024,0,1.415
	L33.104,12.015z M29.427,26.983c0.967,1.065,1.571,2.465,1.571,4.017c0,3.312-2.685,5.997-5.997,5.997H6
	c-3.312,0-5.997-2.685-5.997-5.997c0-1.793,0.803-3.384,2.051-4.483c-0.035-0.334-0.057-0.673-0.057-1.016
	c0-5.247,4.254-9.5,9.5-9.5c0.856,0,1.683,0.124,2.473,0.336c1.543-3.157,4.777-5.336,8.527-5.336c5.247,0,9.499,4.253,9.499,9.499
	C31.996,23.01,31.017,25.285,29.427,26.983z M11.497,19c-3.59,0-6.499,2.91-6.499,6.499c0,0.907,0.188,1.771,0.524,2.555
	C4.094,28.283,3,29.512,3,31.005c0,1.657,1.343,3,2.999,3h19.006c1.657,0,3-1.343,3-3c0-1.656-1.343-2.999-3-2.999h-1.236
	c0.149-0.475,0.252-0.97,0.252-1.492c0-2.764-2.239-5.003-5.003-5.003c-0.742,0-1.44,0.172-2.073,0.462
	C15.785,20.188,13.784,19,11.497,19z M22.497,14c-2.531,0-4.697,1.462-5.768,3.576c0.461,0.304,0.889,0.651,1.288,1.029
	c0.331-0.043,0.658-0.095,1.001-0.095c3.979,0,7.271,2.909,7.889,6.715c1.271-1.186,2.089-2.851,2.089-4.726
	C28.996,16.91,26.086,14,22.497,14z M22.997,8h-1c-0.553,0-1-0.448-1-1V4c0-0.552,0.447-1,1-1h1c0.553,0,1,0.448,1,1v3
	C23.997,7.552,23.55,8,22.997,8z M13.305,12.015c-0.391,0.391-1.024,0.391-1.414,0L9.769,9.894c-0.391-0.391-0.39-1.024,0-1.415
	l0.707-0.707c0.391-0.39,1.024-0.391,1.415,0l2.121,2.122c0.391,0.39,0.391,1.023,0,1.414L13.305,12.015z"/>
</svg>
