<?xml version="1.0" encoding="utf-8"?>
<!-- Generator: Adobe Illustrator 16.0.0, SVG Export Plug-In . SVG Version: 6.00 Build 0)  -->
<!DOCTYPE svg PUBLIC "-//W3C//DTD SVG 1.1//EN" "http://www.w3.org/Graphics/SVG/1.1/DTD/svg11.dtd">
<svg version="1.1" id="Layer_1" xmlns="http://www.w3.org/2000/svg" xmlns:xlink="http://www.w3.org/1999/xlink" x="0px" y="0px"
	 width="40px" height="40px" viewBox="0 0 40 40" enable-background="new 0 0 40 40" xml:space="preserve">
<path fill-rule="evenodd" clip-rule="evenodd" fill="#FFFFFF" d="M7.484,33.959c-4.175-0.266-7.48-3.727-7.48-7.971
	c0-3.035,1.691-5.674,4.183-7.029C4.07,18.318,4,17.662,4,16.987C4,10.919,8.918,6,14.987,6c3.152,0,5.986,1.335,7.99,3.461
	c0.949-0.299,1.96-0.462,3.009-0.462c5.521,0,9.995,4.475,9.995,9.995c0,0.026-0.004,0.05-0.004,0.076c2.389,1.383,4,3.959,4,6.918
	c0,4.418-3.58,7.998-7.996,7.998h-4.323c-0.861-0.004-0.896-0.453-0.648-1.025c0.179-0.422,0.358-0.848,0.537-1.27
	c0.192-0.396,0.465-0.701,1.311-0.701c0.008,0,0.009-0.004,0.017-0.004h3.1c2.757,0,4.991-2.234,4.991-4.99
	c0-2.521-1.874-4.584-4.301-4.922c0.206-0.66,0.318-1.361,0.318-2.089c0-3.859-3.129-6.988-6.988-6.988
	c-1.466,0-2.824,0.453-3.948,1.224c-1.35-2.507-3.997-4.212-7.043-4.212c-4.416,0-7.995,3.579-7.995,7.995
	c0,1.459,0.397,2.823,1.08,4H7.992C5.235,21.004,3,23.238,3,25.996c0,2.756,2.235,4.99,4.992,4.99h1.323
	c0.003,0,0.002,0.004,0.005,0.004c0.671,0,1.421,0.389,1,0.982c-0.005,0.008,0.001,0.01-0.003,0.018
	c-0.317,0.457-0.608,0.877-0.88,1.271c-0.008,0.012-0.014,0.012-0.022,0.023c-0.351,0.504-0.684,0.682-1.112,0.701
	C8.303,33.986,7.848,33.959,7.484,33.959z M17.128,26.5c0.275-0.477,0.885-0.641,1.362-0.365s0.64,0.885,0.365,1.361
	c-0.275,0.479-3.571,8.537-4.122,9.492c-0.55,0.953-1.771,1.281-2.724,0.73c-0.954-0.551-1.281-1.771-0.73-2.725
	C11.829,34.039,16.853,26.977,17.128,26.5z M24.117,26.5c0.275-0.477,0.885-0.641,1.362-0.365c0.477,0.275,0.641,0.885,0.365,1.361
	c-0.275,0.479-3.571,8.537-4.122,9.492c-0.551,0.953-1.771,1.281-2.725,0.73s-1.281-1.771-0.73-2.725
	C18.818,34.039,23.842,26.977,24.117,26.5z"/>
</svg>
