<?xml version="1.0" encoding="utf-8"?>
<!-- Generator: Adobe Illustrator 16.0.0, SVG Export Plug-In . SVG Version: 6.00 Build 0)  -->
<!DOCTYPE svg PUBLIC "-//W3C//DTD SVG 1.1//EN" "http://www.w3.org/Graphics/SVG/1.1/DTD/svg11.dtd">
<svg version="1.1" id="Layer_1" xmlns="http://www.w3.org/2000/svg" xmlns:xlink="http://www.w3.org/1999/xlink" x="0px" y="0px"
	 width="40px" height="40px" viewBox="0 0 40 40" enable-background="new 0 0 40 40" xml:space="preserve">
<path fill-rule="evenodd" clip-rule="evenodd" fill="#FFFFFF" d="M39.986,25.988c0,4.418-3.58,7.998-7.996,7.998h-0.277
	c-0.391-0.053-0.702-0.688-0.702-1.482c0-0.828,0.336-1.498,0.75-1.498c0.015,0,0.029-0.012,0.044-0.02h0.178
	c2.757,0,4.991-2.234,4.991-4.99c0-2.521-1.874-4.584-4.301-4.922c0.206-0.66,0.318-1.361,0.318-2.089
	c0-3.859-3.129-6.988-6.988-6.988c-1.466,0-2.824,0.453-3.948,1.224c-1.35-2.507-3.997-4.212-7.043-4.212
	c-4.416,0-7.995,3.579-7.995,7.995c0,1.459,0.397,2.823,1.08,4H8.002c-2.757,0-4.992,2.234-4.992,4.992
	c0,2.756,2.235,4.99,4.992,4.99h0.323c0.003,0,0.002,0.004,0.005,0.004c0.671,0,1.421,0.389,1,0.982
	c-0.005,0.008,0.001,0.01-0.003,0.018c-0.317,0.457-0.608,0.877-0.88,1.271c-0.008,0.012-0.014,0.012-0.022,0.023
	c-0.295,0.424-0.581,0.607-0.917,0.672c-4.181-0.26-7.494-3.721-7.494-7.969c0-3.035,1.691-5.674,4.183-7.029
	c-0.116-0.641-0.187-1.297-0.187-1.972C4.009,10.919,8.928,6,14.997,6c3.152,0,5.986,1.335,7.99,3.461
	c0.949-0.299,1.96-0.462,3.009-0.462c5.521,0,9.995,4.475,9.995,9.995c0,0.026-0.004,0.05-0.004,0.076
	C38.375,20.453,39.986,23.029,39.986,25.988z M15.638,26.5c0.275-0.477,0.885-0.641,1.362-0.365s0.64,0.885,0.365,1.361
	c-0.275,0.479-3.571,8.537-4.122,9.492c-0.55,0.953-1.771,1.281-2.724,0.73c-0.954-0.551-1.281-1.771-0.73-2.725
	C10.339,34.039,15.362,26.977,15.638,26.5z M22.675,31.496c-1.32-0.506-3.414-1.297-3.829-1.537
	c-0.598-0.346-0.803-1.109-0.458-1.707s1.109-0.803,1.708-0.459c0.417,0.242,2.151,1.662,3.249,2.551
	c-0.22-1.395-0.582-3.604-0.582-4.086c0-0.691,0.56-1.25,1.25-1.25s1.25,0.559,1.25,1.25c0,0.48-0.362,2.691-0.584,4.09
	c1.099-0.889,2.833-2.309,3.25-2.551c0.599-0.344,1.362-0.139,1.708,0.459c0.345,0.598,0.141,1.361-0.458,1.707
	c-0.417,0.24-2.518,1.033-3.836,1.541c1.319,0.506,3.415,1.299,3.831,1.539c0.598,0.344,0.803,1.109,0.457,1.707
	c-0.345,0.598-1.109,0.803-1.707,0.457c-0.418-0.24-2.151-1.66-3.249-2.549c0.22,1.393,0.582,3.604,0.582,4.086
	c0,0.689-0.56,1.25-1.25,1.25s-1.25-0.561-1.25-1.25c0-0.48,0.362-2.693,0.584-4.09c-1.099,0.889-2.829,2.305-3.246,2.545
	c-0.598,0.346-1.363,0.141-1.708-0.457c-0.345-0.598-0.141-1.361,0.458-1.707C19.262,32.795,21.356,32.004,22.675,31.496z"/>
</svg>
