<?xml version="1.0" encoding="utf-8"?>
<!-- Generator: Adobe Illustrator 16.0.0, SVG Export Plug-In . SVG Version: 6.00 Build 0)  -->
<!DOCTYPE svg PUBLIC "-//W3C//DTD SVG 1.1//EN" "http://www.w3.org/Graphics/SVG/1.1/DTD/svg11.dtd">
<svg version="1.1" id="Layer_1" xmlns="http://www.w3.org/2000/svg" xmlns:xlink="http://www.w3.org/1999/xlink" x="0px" y="0px"
	 width="40px" height="40px" viewBox="0 0 40 40" enable-background="new 0 0 40 40" xml:space="preserve">
<path fill-rule="evenodd" clip-rule="evenodd" fill="#FFFFFF" d="M39.986,25.989c0,4.416-3.58,7.996-7.996,7.996h-3.248
	c-0.405-0.021-0.731-0.678-0.731-1.492c0-0.828,0.336-1.5,0.75-1.5c0.005,0,0.011-0.006,0.016-0.006h3.206
	c2.757,0,4.991-2.234,4.991-4.992c0-2.52-1.874-4.583-4.301-4.921c0.206-0.66,0.318-1.361,0.318-2.089
	c0-3.859-3.129-6.988-6.988-6.988c-1.466,0-2.824,0.453-3.948,1.224c-1.35-2.507-3.997-4.212-7.043-4.212
	c-4.416,0-7.995,3.579-7.995,7.995c0,1.459,0.397,2.823,1.08,4H8.002c-2.757,0-4.992,2.235-4.992,4.991
	c0,2.758,2.235,4.992,4.992,4.992h3.244c0.005,0,0.011,0.006,0.016,0.006c0.414,0,0.75,0.672,0.75,1.5
	c0,0.814-0.326,1.471-0.731,1.492H8.01c-4.417,0-7.997-3.58-7.997-7.996c0-3.036,1.691-5.675,4.183-7.03
	c-0.116-0.641-0.187-1.298-0.187-1.972C4.009,10.919,8.928,6,14.997,6c3.152,0,5.986,1.335,7.99,3.461
	c0.949-0.299,1.96-0.462,3.009-0.462c5.521,0,9.995,4.475,9.995,9.995c0,0.026-0.004,0.051-0.004,0.076
	C38.375,20.453,39.986,23.03,39.986,25.989z M18.675,31.485c-1.32-0.508-3.414-1.299-3.829-1.539
	c-0.598-0.344-0.803-1.109-0.458-1.707s1.109-0.803,1.708-0.457c0.417,0.24,2.15,1.66,3.249,2.549
	c-0.22-1.393-0.582-3.604-0.582-4.086c0-0.689,0.56-1.25,1.25-1.25c0.69,0,1.25,0.561,1.25,1.25c0,0.48-0.362,2.693-0.584,4.09
	c1.099-0.889,2.833-2.309,3.25-2.549c0.599-0.346,1.362-0.141,1.708,0.457c0.345,0.598,0.141,1.363-0.458,1.707
	c-0.417,0.242-2.518,1.035-3.836,1.541c1.319,0.508,3.415,1.299,3.831,1.539c0.598,0.346,0.803,1.109,0.457,1.707
	c-0.345,0.598-1.109,0.803-1.707,0.459c-0.418-0.242-2.151-1.662-3.249-2.551c0.22,1.395,0.582,3.604,0.582,4.086
	c0,0.689-0.56,1.25-1.25,1.25c-0.69,0-1.25-0.561-1.25-1.25c0-0.48,0.363-2.691,0.584-4.088c-1.099,0.889-2.828,2.305-3.245,2.545
	c-0.598,0.346-1.363,0.141-1.708-0.457c-0.345-0.6-0.141-1.363,0.458-1.709C15.262,32.782,17.356,31.991,18.675,31.485z"/>
</svg>
