<?xml version="1.0" encoding="utf-8"?>
<!-- Generator: Adobe Illustrator 16.0.0, SVG Export Plug-In . SVG Version: 6.00 Build 0)  -->
<!DOCTYPE svg PUBLIC "-//W3C//DTD SVG 1.1//EN" "http://www.w3.org/Graphics/SVG/1.1/DTD/svg11.dtd">
<svg version="1.1" id="Layer_1" xmlns="http://www.w3.org/2000/svg" xmlns:xlink="http://www.w3.org/1999/xlink" x="0px" y="0px"
	 width="40px" height="40px" viewBox="0 0 40 40" enable-background="new 0 0 40 40" xml:space="preserve">
<path fill-rule="evenodd" clip-rule="evenodd" fill="#FFFFFF" d="M39.986,25.989c0,4.416-3.58,7.996-7.996,7.996h-4.22
	c-0.003,0-0.006-0.004-0.01-0.004c-0.414,0-0.75-0.672-0.75-1.5c0-0.818,0.329-1.48,0.737-1.494h4.234
	c2.757,0,4.991-2.234,4.991-4.992c0-2.52-1.874-4.583-4.301-4.921c0.206-0.66,0.318-1.361,0.318-2.089
	c0-3.859-3.129-6.988-6.988-6.988c-1.466,0-2.824,0.453-3.948,1.224c-1.35-2.507-3.996-4.212-7.043-4.212
	c-4.416,0-7.995,3.579-7.995,7.995c0,1.459,0.397,2.823,1.08,4H8.002c-2.757,0-4.992,2.235-4.992,4.991
	c0,2.758,2.235,4.992,4.992,4.992h4.272c0.407,0.014,0.737,0.676,0.737,1.494c0,0.828-0.336,1.5-0.75,1.5
	c-0.004,0-0.01,0.004-0.013,0.004H8.01c-4.416,0-7.996-3.58-7.996-7.996c0-3.035,1.69-5.675,4.182-7.03
	C4.08,18.318,4.01,17.662,4.01,16.987C4.01,10.919,8.928,6,14.996,6c3.152,0,5.986,1.335,7.99,3.461
	c0.949-0.299,1.96-0.462,3.009-0.462c5.521,0,9.995,4.475,9.995,9.995c0,0.026-0.004,0.051-0.004,0.076
	C38.375,20.453,39.986,23.03,39.986,25.989z M15.107,31.22l5.803-7.012l0.016,0.004c0.104-0.137,0.273-0.232,0.476-0.232
	c0.317,0,0.574,0.223,0.577,0.494l0.016,0.004l-0.948,4.805c-0.03,0.061-0.047,0.127-0.047,0.197c0,0.273,0.259,0.498,0.578,0.498
	c0.01,0,0.019-0.006,0.028-0.006l0.013,0.01h2.812c0.011,0,0.02-0.004,0.03-0.004c0.318,0,0.577,0.223,0.577,0.498
	c0,0.115-0.053,0.217-0.13,0.303l0.011,0.018l-5.88,6.967l-0.006-0.002c-0.104,0.137-0.273,0.232-0.476,0.232
	c-0.319,0-0.577-0.225-0.577-0.5c0-0.004,0.002-0.008,0.003-0.014l-0.011-0.002l0.992-4.859C18.983,32.569,19,32.521,19,32.468
	c0-0.275-0.258-0.498-0.578-0.498c-0.008,0-0.015,0.004-0.023,0.004h-0.001l-2.729-0.016c-0.022,0.002-0.043,0.012-0.066,0.012
	c-0.319,0-0.578-0.223-0.578-0.498c0-0.092,0.037-0.174,0.087-0.248L15.107,31.22z"/>
</svg>
