<?xml version="1.0" encoding="utf-8"?>
<!-- Generator: Adobe Illustrator 16.0.0, SVG Export Plug-In . SVG Version: 6.00 Build 0)  -->
<!DOCTYPE svg PUBLIC "-//W3C//DTD SVG 1.1//EN" "http://www.w3.org/Graphics/SVG/1.1/DTD/svg11.dtd">
<svg version="1.1" id="Layer_1" xmlns="http://www.w3.org/2000/svg" xmlns:xlink="http://www.w3.org/1999/xlink" x="0px" y="0px"
	 width="40px" height="40px" viewBox="0 0 40 40" enable-background="new 0 0 40 40" xml:space="preserve">
<g>
	<g>
		<path fill-rule="evenodd" clip-rule="evenodd" fill="#FFFFFF" d="M35,8H5C4.447,8,4,8.448,4,9v1c0,0.552,0.447,1,1,1h30
			c0.562,0,1-0.448,1-1V9C36,8.448,35.553,8,35,8z M39,1H1C0.447,1,0,1.448,0,2v1c0,0.552,0.447,1,1,1h38c0.553,0,1-0.448,1-1V2
			C40,1.448,39.553,1,39,1z M31,15H11c-0.553,0-1,0.448-1,1v1c0,0.552,0.447,1,1,1h20c0.553,0,1-0.448,1-1v-1
			C32,15.448,31.553,15,31,15z M27,29h-8c-0.553,0-1,0.447-1,1v1c0,0.553,0.447,1,1,1h8c0.553,0,1-0.447,1-1v-1
			C28,29.447,27.553,29,27,29z M24,36h-5c-0.553,0-1,0.447-1,1v1c0,0.553,0.447,1,1,1h5c0.553,0,1-0.447,1-1v-1
			C25,36.447,24.553,36,24,36z M31,22H17c-0.553,0-1,0.447-1,1v1c0,0.553,0.447,1,1,1h14c0.553,0,1-0.447,1-1v-1
			C32,22.447,31.553,22,31,22z"/>
	</g>
</g>
</svg>
