<?xml version="1.0" encoding="utf-8"?>
<!-- Generator: Adobe Illustrator 16.0.0, SVG Export Plug-In . SVG Version: 6.00 Build 0)  -->
<!DOCTYPE svg PUBLIC "-//W3C//DTD SVG 1.1//EN" "http://www.w3.org/Graphics/SVG/1.1/DTD/svg11.dtd">
<svg version="1.1" id="Layer_1" xmlns="http://www.w3.org/2000/svg" xmlns:xlink="http://www.w3.org/1999/xlink" x="0px" y="0px"
	 width="40px" height="40px" viewBox="0 0 40 40" enable-background="new 0 0 40 40" xml:space="preserve">
<path fill-rule="evenodd" clip-rule="evenodd" fill="#FFFFFF" d="M1,25c-0.552,0-1-0.447-1-1v-1c0-0.553,0.448-1,1-1h33l0,0
	c3.313,0,6,2.687,6,6s-2.687,6-6,6c-2.883,0-5.287-2.035-5.864-4.746l0.014-0.002c-0.022-0.083-0.052-0.164-0.052-0.254
	c0-0.553,0.448-1,1-1h1.032c0.471,0,0.848,0.333,0.953,0.771l0.027-0.005C31.45,30.049,32.609,31,34,31c1.657,0,3-1.343,3-3
	s-1.343-3-3-3l0,0H1z M1,15c-0.552,0-1,0.448-1,1v1c0,0.552,0.448,1,1,1h27l0,0c3.313,0,6-2.687,6-6s-2.687-6-6-6
	c-2.883,0-5.287,2.035-5.864,4.746l0.014,0.002c-0.022,0.083-0.052,0.164-0.052,0.253c0,0.552,0.448,1,1,1h1.032
	c0.471,0,0.848-0.333,0.953-0.771l0.027,0.004C25.45,9.951,26.609,9,28,9c1.657,0,3,1.343,3,3s-1.343,3-3,3l0,0H1z"/>
</svg>
